ffmpeg started on 2025-05-12 at 20:22:18
Report written to "D:\Convert\FFMetrics\reports\ssim_report-6.txt"
Log level: 32
Command line:
ffmpeg -hide_banner -nostdin -i "G:\\\xc0\xed\xe8\xec\xe5\\\xce\xed\xe3\xee\xe8\xed\xe3\xe8\\!_35_\xcb\xe5\xf2\xee_2024\\DreamCast-1\\\xcf\xee\xeb\xf3\xed\xee\xf7\xed\xfb\xe9 \xf3\xe4\xe0\xf0\\[DC] Mayonaka Punch - 08_Telegram_HEVC.mkv" -i "G:\\\xc0\xed\xe8\xec\xe5\\\xce\xed\xe3\xee\xe8\xed\xe3\xe8\\!_35_\xcb\xe5\xf2\xee_2024\\DreamCast-1\\\xcf\xee\xeb\xf3\xed\xee\xf7\xed\xfb\xe9 \xf3\xe4\xe0\xf0\\[DC] Mayonaka Punch - 08_Telegram.mp4" -lavfi "[0:v]settb=AVTB,setpts=PTS-STARTPTS,format=pix_fmts=yuv420p10,fps=24000/1001,scale=1920:1080:flags=bicubic[main];[1:v]settb=AVTB,setpts=PTS-STARTPTS,format=pix_fmts=yuv420p,fps=24000/1001,scale=1920:1080:flags=bicubic[ref];[main][ref]ssim=eof_action=endall:stats_file='D\\:/Convert/FFMetrics/logs/ssim_logfile-6.txt'" -f null -
Input #0, matroska,webm, from 'G:\Аниме\Онгоинги\!_35_Лето_2024\DreamCast-1\Полуночный удар\[DC] Mayonaka Punch - 08_Telegram_HEVC.mkv':
  Metadata:
    COMPATIBLE_BRANDS: isomiso2avc1mp41
    MAJOR_BRAND     : isom
    MINOR_VERSION   : 512
    ENCODER         : Lavf61.7.100
  Duration: 00:23:47.76, start: -0.021000, bitrate: 1138 kb/s
  Stream #0:0: Video: hevc (Main 10), yuv420p10le(tv, bt709, progressive), 1920x1080 [SAR 1:1 DAR 16:9], 23.98 fps, 23.98 tbr, 1k tbn (default)
      Metadata:
        HANDLER_NAME    : VideoHandler
        VENDOR_ID       : [0][0][0][0]
        ENCODER         : Lavc61.19.100 libx265
        BPS             : 941497
        DURATION        : 00:23:46.591708333
        NUMBER_OF_FRAMES: 34204
        NUMBER_OF_BYTES : 167891475
        _STATISTICS_WRITING_APP: mkvpropedit v66.0.0 ('Josie') 64-bit
        _STATISTICS_WRITING_DATE_UTC: 2025-05-10 11:24:46
        _STATISTICS_TAGS: BPS DURATION NUMBER_OF_FRAMES NUMBER_OF_BYTES
  Stream #0:1: Audio: aac (LC), 48000 Hz, stereo, fltp (default)
      Metadata:
        HANDLER_NAME    : SoundHandler
        VENDOR_ID       : [0][0][0][0]
        ENCODER         : Lavc61.19.100 aac
        BPS             : 193357
        DURATION        : 00:23:47.754000000
        NUMBER_OF_FRAMES: 66927
        NUMBER_OF_BYTES : 34508360
        _STATISTICS_WRITING_APP: mkvpropedit v66.0.0 ('Josie') 64-bit
        _STATISTICS_WRITING_DATE_UTC: 2025-05-10 11:24:46
        _STATISTICS_TAGS: BPS DURATION NUMBER_OF_FRAMES NUMBER_OF_BYTES
Input #1, mov,mp4,m4a,3gp,3g2,mj2, from 'G:\Аниме\Онгоинги\!_35_Лето_2024\DreamCast-1\Полуночный удар\[DC] Mayonaka Punch - 08_Telegram.mp4':
  Metadata:
    major_brand     : isom
    minor_version   : 512
    compatible_brands: isomiso2avc1mp41
    encoder         : Lavf61.1.100
  Duration: 00:23:47.72, start: 0.000000, bitrate: 3771 kb/s
  Stream #1:0[0x1](und): Video: h264 (High) (avc1 / 0x31637661), yuv420p(tv, bt709, progressive), 1920x1080 [SAR 1:1 DAR 16:9], 3626 kb/s, 23.98 fps, 23.98 tbr, 24k tbn (default)
      Metadata:
        handler_name    : VideoHandler
        vendor_id       : [0][0][0][0]
        encoder         : Lavc61.3.100 h264_qsv
  Stream #1:1[0x2](und): Audio: aac (HE-AACv2) (mp4a / 0x6134706D), 48000 Hz, stereo, fltp, 144 kb/s (default)
      Metadata:
        handler_name    : SoundHandler
        vendor_id       : [0][0][0][0]
Stream mapping:
  Stream #0:0 (hevc) -> settb:default
  Stream #1:0 (h264) -> settb:default
  ssim:default -> Stream #0:0 (wrapped_avframe)
  Stream #0:1 -> #0:1 (aac (native) -> pcm_s16le (native))
Output #0, null, to 'pipe:':
  Metadata:
    COMPATIBLE_BRANDS: isomiso2avc1mp41
    MAJOR_BRAND     : isom
    MINOR_VERSION   : 512
    encoder         : Lavf61.7.100
  Stream #0:0: Video: wrapped_avframe, yuv420p10le(tv, bt709, progressive), 1920x1080 [SAR 1:1 DAR 16:9], q=2-31, 200 kb/s, 23.98 fps, 23.98 tbn
      Metadata:
        encoder         : Lavc61.19.100 wrapped_avframe
  Stream #0:1: Audio: pcm_s16le, 48000 Hz, stereo, s16, 1536 kb/s (default)
      Metadata:
        HANDLER_NAME    : SoundHandler
        VENDOR_ID       : [0][0][0][0]
        _STATISTICS_TAGS: BPS DURATION NUMBER_OF_FRAMES NUMBER_OF_BYTES
        BPS             : 193357
        DURATION        : 00:23:47.754000000
        NUMBER_OF_FRAMES: 66927
        NUMBER_OF_BYTES : 34508360
        _STATISTICS_WRITING_APP: mkvpropedit v66.0.0 ('Josie') 64-bit
        _STATISTICS_WRITING_DATE_UTC: 2025-05-10 11:24:46
        encoder         : Lavc61.19.100 pcm_s16le
frame=  157 fps=0.0 q=-0.0 size=N/A time=00:00:06.54 bitrate=N/A speed=12.8x    frame=  347 fps=336 q=-0.0 size=N/A time=00:00:14.47 bitrate=N/A speed=  14x    frame=  556 fps=362 q=-0.0 size=N/A time=00:00:23.18 bitrate=N/A speed=15.1x    frame=  795 fps=386 q=-0.0 size=N/A time=00:00:33.15 bitrate=N/A speed=16.1x    frame= 1001 fps=390 q=-0.0 size=N/A time=00:00:41.75 bitrate=N/A speed=16.3x    frame= 1181 fps=382 q=-0.0 size=N/A time=00:00:49.25 bitrate=N/A speed=15.9x    frame= 1325 fps=367 q=-0.0 size=N/A time=00:00:55.26 bitrate=N/A speed=15.3x    frame= 1468 fps=356 q=-0.0 size=N/A time=00:01:01.22 bitrate=N/A speed=14.8x    frame= 1655 fps=356 q=-0.0 size=N/A time=00:01:09.02 bitrate=N/A speed=14.9x    frame= 1820 fps=353 q=-0.0 size=N/A time=00:01:15.90 bitrate=N/A speed=14.7x    frame= 1982 fps=350 q=-0.0 size=N/A time=00:01:22.66 bitrate=N/A speed=14.6x    frame= 2146 fps=347 q=-0.0 size=N/A time=00:01:29.50 bitrate=N/A speed=14.5x    frame= 2324 fps=347 q=-0.0 size=N/A time=00:01:36.93 bitrate=N/A speed=14.5x    frame= 2506 fps=348 q=-0.0 size=N/A time=00:01:44.52 bitrate=N/A speed=14.5x    frame= 2691 fps=348 q=-0.0 size=N/A time=00:01:52.23 bitrate=N/A speed=14.5x    frame= 2878 fps=349 q=-0.0 size=N/A time=00:02:00.03 bitrate=N/A speed=14.5x    frame= 3061 fps=349 q=-0.0 size=N/A time=00:02:07.66 bitrate=N/A speed=14.6x    frame= 3237 fps=349 q=-0.0 size=N/A time=00:02:15.00 bitrate=N/A speed=14.6x    frame= 3459 fps=353 q=-0.0 size=N/A time=00:02:24.26 bitrate=N/A speed=14.7x    frame= 3711 fps=360 q=-0.0 size=N/A time=00:02:34.77 bitrate=N/A speed=  15x    frame= 3947 fps=365 q=-0.0 size=N/A time=00:02:44.62 bitrate=N/A speed=15.2x    frame= 4194 fps=370 q=-0.0 size=N/A time=00:02:54.92 bitrate=N/A speed=15.4x    frame= 4424 fps=373 q=-0.0 size=N/A time=00:03:04.51 bitrate=N/A speed=15.6x    frame= 4653 fps=376 q=-0.0 size=N/A time=00:03:14.06 bitrate=N/A speed=15.7x    frame= 4910 fps=381 q=-0.0 size=N/A time=00:03:24.78 bitrate=N/A speed=15.9x    frame= 5144 fps=384 q=-0.0 size=N/A time=00:03:34.54 bitrate=N/A speed=  16x    frame= 5407 fps=388 q=-0.0 size=N/A time=00:03:45.51 bitrate=N/A speed=16.2x    frame= 5636 fps=390 q=-0.0 size=N/A time=00:03:55.06 bitrate=N/A speed=16.3x    frame= 5882 fps=393 q=-0.0 size=N/A time=00:04:05.32 bitrate=N/A speed=16.4x    frame= 6126 fps=396 q=-0.0 size=N/A time=00:04:15.50 bitrate=N/A speed=16.5x    frame= 6379 fps=399 q=-0.0 size=N/A time=00:04:26.05 bitrate=N/A speed=16.6x    frame= 6649 fps=403 q=-0.0 size=N/A time=00:04:37.31 bitrate=N/A speed=16.8x    frame= 6891 fps=405 q=-0.0 size=N/A time=00:04:47.41 bitrate=N/A speed=16.9x    frame= 7116 fps=406 q=-0.0 size=N/A time=00:04:56.79 bitrate=N/A speed=16.9x    frame= 7338 fps=407 q=-0.0 size=N/A time=00:05:06.05 bitrate=N/A speed=  17x    frame= 7605 fps=410 q=-0.0 size=N/A time=00:05:17.19 bitrate=N/A speed=17.1x    frame= 7828 fps=410 q=-0.0 size=N/A time=00:05:26.49 bitrate=N/A speed=17.1x    frame= 8095 fps=413 q=-0.0 size=N/A time=00:05:37.62 bitrate=N/A speed=17.2x    frame= 8360 fps=416 q=-0.0 size=N/A time=00:05:48.68 bitrate=N/A speed=17.3x    frame= 8603 fps=417 q=-0.0 size=N/A time=00:05:58.81 bitrate=N/A speed=17.4x    frame= 8833 fps=418 q=-0.0 size=N/A time=00:06:08.40 bitrate=N/A speed=17.4x    frame= 9101 fps=420 q=-0.0 size=N/A time=00:06:19.58 bitrate=N/A speed=17.5x    frame= 9351 fps=422 q=-0.0 size=N/A time=00:06:30.01 bitrate=N/A speed=17.6x    frame= 9582 fps=422 q=-0.0 size=N/A time=00:06:39.64 bitrate=N/A speed=17.6x    frame= 9818 fps=423 q=-0.0 size=N/A time=00:06:49.49 bitrate=N/A speed=17.6x    frame=10027 fps=423 q=-0.0 size=N/A time=00:06:58.20 bitrate=N/A speed=17.6x    frame=10282 fps=424 q=-0.0 size=N/A time=00:07:08.84 bitrate=N/A speed=17.7x    frame=10480 fps=423 q=-0.0 size=N/A time=00:07:17.10 bitrate=N/A speed=17.6x    frame=10684 fps=423 q=-0.0 size=N/A time=00:07:25.61 bitrate=N/A speed=17.6x    frame=10928 fps=424 q=-0.0 size=N/A time=00:07:35.78 bitrate=N/A speed=17.7x    frame=11197 fps=426 q=-0.0 size=N/A time=00:07:47.00 bitrate=N/A speed=17.7x    frame=11450 fps=427 q=-0.0 size=N/A time=00:07:57.56 bitrate=N/A speed=17.8x    frame=11691 fps=428 q=-0.0 size=N/A time=00:08:07.61 bitrate=N/A speed=17.8x    frame=11914 fps=428 q=-0.0 size=N/A time=00:08:16.91 bitrate=N/A speed=17.8x    frame=12104 fps=427 q=-0.0 size=N/A time=00:08:24.83 bitrate=N/A speed=17.8x    frame=12371 fps=428 q=-0.0 size=N/A time=00:08:35.97 bitrate=N/A speed=17.9x    frame=12602 fps=429 q=-0.0 size=N/A time=00:08:45.60 bitrate=N/A speed=17.9x    frame=12798 fps=428 q=-0.0 size=N/A time=00:08:53.78 bitrate=N/A speed=17.8x    frame=13022 fps=428 q=-0.0 size=N/A time=00:09:03.12 bitrate=N/A speed=17.8x    frame=13230 fps=427 q=-0.0 size=N/A time=00:09:11.80 bitrate=N/A speed=17.8x    frame=13441 fps=427 q=-0.0 size=N/A time=00:09:20.60 bitrate=N/A speed=17.8x    frame=13664 fps=427 q=-0.0 size=N/A time=00:09:29.90 bitrate=N/A speed=17.8x    frame=13899 fps=428 q=-0.0 size=N/A time=00:09:39.70 bitrate=N/A speed=17.8x    frame=14131 fps=428 q=-0.0 size=N/A time=00:09:49.38 bitrate=N/A speed=17.9x    frame=14369 fps=429 q=-0.0 size=N/A time=00:09:59.30 bitrate=N/A speed=17.9x    frame=14612 fps=429 q=-0.0 size=N/A time=00:10:09.44 bitrate=N/A speed=17.9x    frame=14849 fps=430 q=-0.0 size=N/A time=00:10:19.32 bitrate=N/A speed=17.9x    frame=15069 fps=430 q=-0.0 size=N/A time=00:10:28.50 bitrate=N/A speed=17.9x    frame=15282 fps=429 q=-0.0 size=N/A time=00:10:37.38 bitrate=N/A speed=17.9x    frame=15436 fps=427 q=-0.0 size=N/A time=00:10:43.80 bitrate=N/A speed=17.8x    frame=15648 fps=427 q=-0.0 size=N/A time=00:10:52.65 bitrate=N/A speed=17.8x    frame=15869 fps=427 q=-0.0 size=N/A time=00:11:01.86 bitrate=N/A speed=17.8x    frame=16108 fps=428 q=-0.0 size=N/A time=00:11:11.83 bitrate=N/A speed=17.8x    frame=16334 fps=428 q=-0.0 size=N/A time=00:11:21.26 bitrate=N/A speed=17.8x    frame=16568 fps=428 q=-0.0 size=N/A time=00:11:31.02 bitrate=N/A speed=17.9x    frame=16811 fps=429 q=-0.0 size=N/A time=00:11:41.15 bitrate=N/A speed=17.9x    frame=16975 fps=427 q=-0.0 size=N/A time=00:11:47.99 bitrate=N/A speed=17.8x    frame=17200 fps=427 q=-0.0 size=N/A time=00:11:57.38 bitrate=N/A speed=17.8x    frame=17398 fps=427 q=-0.0 size=N/A time=00:12:05.64 bitrate=N/A speed=17.8x    frame=17629 fps=427 q=-0.0 size=N/A time=00:12:15.27 bitrate=N/A speed=17.8x    frame=17843 fps=427 q=-0.0 size=N/A time=00:12:24.20 bitrate=N/A speed=17.8x    frame=18100 fps=428 q=-0.0 size=N/A time=00:12:34.92 bitrate=N/A speed=17.8x    frame=18331 fps=428 q=-0.0 size=N/A time=00:12:44.55 bitrate=N/A speed=17.9x    frame=18552 fps=428 q=-0.0 size=N/A time=00:12:53.77 bitrate=N/A speed=17.9x    frame=18786 fps=428 q=-0.0 size=N/A time=00:13:03.53 bitrate=N/A speed=17.9x    frame=19000 fps=428 q=-0.0 size=N/A time=00:13:12.45 bitrate=N/A speed=17.9x    frame=19259 fps=429 q=-0.0 size=N/A time=00:13:23.26 bitrate=N/A speed=17.9x    frame=19500 fps=430 q=-0.0 size=N/A time=00:13:33.31 bitrate=N/A speed=17.9x    frame=19737 fps=430 q=-0.0 size=N/A time=00:13:43.19 bitrate=N/A speed=17.9x    frame=19984 fps=430 q=-0.0 size=N/A time=00:13:53.49 bitrate=N/A speed=  18x    frame=20208 fps=431 q=-0.0 size=N/A time=00:14:02.84 bitrate=N/A speed=  18x    frame=20415 fps=430 q=-0.0 size=N/A time=00:14:11.47 bitrate=N/A speed=17.9x    frame=20652 fps=431 q=-0.0 size=N/A time=00:14:21.36 bitrate=N/A speed=  18x    frame=20873 fps=431 q=-0.0 size=N/A time=00:14:30.57 bitrate=N/A speed=  18x    frame=21121 fps=431 q=-0.0 size=N/A time=00:14:40.92 bitrate=N/A speed=  18x    frame=21362 fps=431 q=-0.0 size=N/A time=00:14:50.97 bitrate=N/A speed=  18x    frame=21618 fps=432 q=-0.0 size=N/A time=00:15:01.65 bitrate=N/A speed=  18x    frame=21856 fps=432 q=-0.0 size=N/A time=00:15:11.57 bitrate=N/A speed=  18x    frame=22106 fps=433 q=-0.0 size=N/A time=00:15:22.00 bitrate=N/A speed=18.1x    frame=22348 fps=433 q=-0.0 size=N/A time=00:15:32.09 bitrate=N/A speed=18.1x    frame=22615 fps=434 q=-0.0 size=N/A time=00:15:43.23 bitrate=N/A speed=18.1x    frame=22861 fps=435 q=-0.0 size=N/A time=00:15:53.49 bitrate=N/A speed=18.1x    frame=23097 fps=435 q=-0.0 size=N/A time=00:16:03.33 bitrate=N/A speed=18.1x    frame=23297 fps=434 q=-0.0 size=N/A time=00:16:11.67 bitrate=N/A speed=18.1x    frame=23514 fps=434 q=-0.0 size=N/A time=00:16:20.72 bitrate=N/A speed=18.1x    frame=23770 fps=435 q=-0.0 size=N/A time=00:16:31.40 bitrate=N/A speed=18.1x    frame=23992 fps=435 q=-0.0 size=N/A time=00:16:40.66 bitrate=N/A speed=18.1x    frame=24233 fps=435 q=-0.0 size=N/A time=00:16:50.71 bitrate=N/A speed=18.1x    frame=24469 fps=435 q=-0.0 size=N/A time=00:17:00.56 bitrate=N/A speed=18.2x    frame=24715 fps=436 q=-0.0 size=N/A time=00:17:10.82 bitrate=N/A speed=18.2x    frame=24959 fps=436 q=-0.0 size=N/A time=00:17:20.99 bitrate=N/A speed=18.2x    frame=25208 fps=436 q=-0.0 size=N/A time=00:17:31.38 bitrate=N/A speed=18.2x    frame=25456 fps=437 q=-0.0 size=N/A time=00:17:41.72 bitrate=N/A speed=18.2x    frame=25682 fps=437 q=-0.0 size=N/A time=00:17:51.15 bitrate=N/A speed=18.2x    frame=25944 fps=437 q=-0.0 size=N/A time=00:18:02.08 bitrate=N/A speed=18.2x    frame=26196 fps=438 q=-0.0 size=N/A time=00:18:12.59 bitrate=N/A speed=18.3x    frame=26440 fps=438 q=-0.0 size=N/A time=00:18:22.76 bitrate=N/A speed=18.3x    frame=26686 fps=438 q=-0.0 size=N/A time=00:18:33.02 bitrate=N/A speed=18.3x    frame=26932 fps=439 q=-0.0 size=N/A time=00:18:43.28 bitrate=N/A speed=18.3x    frame=27173 fps=439 q=-0.0 size=N/A time=00:18:53.34 bitrate=N/A speed=18.3x    frame=27427 fps=439 q=-0.0 size=N/A time=00:19:03.93 bitrate=N/A speed=18.3x    frame=27680 fps=440 q=-0.0 size=N/A time=00:19:14.48 bitrate=N/A speed=18.3x    frame=27918 fps=440 q=-0.0 size=N/A time=00:19:24.41 bitrate=N/A speed=18.4x    frame=28173 fps=440 q=-0.0 size=N/A time=00:19:35.04 bitrate=N/A speed=18.4x    frame=28429 fps=441 q=-0.0 size=N/A time=00:19:45.72 bitrate=N/A speed=18.4x    frame=28696 fps=441 q=-0.0 size=N/A time=00:19:56.86 bitrate=N/A speed=18.4x    frame=28943 fps=442 q=-0.0 size=N/A time=00:20:07.16 bitrate=N/A speed=18.4x    frame=29204 fps=442 q=-0.0 size=N/A time=00:20:18.05 bitrate=N/A speed=18.4x    frame=29444 fps=442 q=-0.0 size=N/A time=00:20:28.06 bitrate=N/A speed=18.5x    frame=29656 fps=442 q=-0.0 size=N/A time=00:20:36.90 bitrate=N/A speed=18.4x    frame=29870 fps=442 q=-0.0 size=N/A time=00:20:45.82 bitrate=N/A speed=18.4x    frame=30096 fps=442 q=-0.0 size=N/A time=00:20:55.25 bitrate=N/A speed=18.4x    frame=30338 fps=442 q=-0.0 size=N/A time=00:21:05.34 bitrate=N/A speed=18.4x    frame=30557 fps=442 q=-0.0 size=N/A time=00:21:14.48 bitrate=N/A speed=18.4x    frame=30774 fps=442 q=-0.0 size=N/A time=00:21:23.53 bitrate=N/A speed=18.4x    frame=30992 fps=442 q=-0.0 size=N/A time=00:21:32.62 bitrate=N/A speed=18.4x    frame=31204 fps=442 q=-0.0 size=N/A time=00:21:41.46 bitrate=N/A speed=18.4x    frame=31450 fps=442 q=-0.0 size=N/A time=00:21:51.72 bitrate=N/A speed=18.4x    frame=31657 fps=441 q=-0.0 size=N/A time=00:22:00.36 bitrate=N/A speed=18.4x    frame=31888 fps=441 q=-0.0 size=N/A time=00:22:09.99 bitrate=N/A speed=18.4x    frame=32099 fps=441 q=-0.0 size=N/A time=00:22:18.79 bitrate=N/A speed=18.4x    frame=32274 fps=440 q=-0.0 size=N/A time=00:22:26.09 bitrate=N/A speed=18.4x    frame=32450 fps=440 q=-0.0 size=N/A time=00:22:33.43 bitrate=N/A speed=18.3x    frame=32652 fps=439 q=-0.0 size=N/A time=00:22:41.86 bitrate=N/A speed=18.3x    frame=32818 fps=439 q=-0.0 size=N/A time=00:22:48.78 bitrate=N/A speed=18.3x    frame=32999 fps=438 q=-0.0 size=N/A time=00:22:56.33 bitrate=N/A speed=18.3x    frame=33158 fps=437 q=-0.0 size=N/A time=00:23:02.96 bitrate=N/A speed=18.2x    frame=33360 fps=437 q=-0.0 size=N/A time=00:23:11.39 bitrate=N/A speed=18.2x    frame=33588 fps=437 q=-0.0 size=N/A time=00:23:20.89 bitrate=N/A speed=18.2x    frame=33812 fps=437 q=-0.0 size=N/A time=00:23:30.24 bitrate=N/A speed=18.2x    frame=34010 fps=436 q=-0.0 size=N/A time=00:23:38.50 bitrate=N/A speed=18.2x    frame=34164 fps=435 q=-0.0 size=N/A time=00:23:44.92 bitrate=N/A speed=18.2x    [Parsed_ssim_10 @ 0000025fe437a040] SSIM Y:0.994877 (22.904992) U:0.994843 (22.876358) V:0.994728 (22.780279) All:0.994847 (22.879194)
[out#0/null @ 0000025fe4354340] video:14697KiB audio:267708KiB subtitle:0KiB other streams:0KiB global headers:0KiB muxing overhead: unknown
frame=34204 fps=435 q=-0.0 Lsize=N/A time=00:23:46.59 bitrate=N/A speed=18.2x    
